<svg xmlns="http://www.w3.org/2000/svg" viewBox="0 17.350000381469727 187.60000610351562 36.05000305175781" data-asc="1.058" width="187.60000610351562" height="36.05000305175781"><defs/><g><g fill="#000000"><g transform="translate(0, 0)"><path d="M0 17.90L15.25 17.90L15.25 18.85L12.50 18.85L12.50 51.95L15.25 51.95L15.25 52.90L0 52.90L0 51.95L2.75 51.95L2.75 18.85L0 18.85L0 17.90ZM32.75 52.35Q35.25 52.35 37.17 51.00Q39.10 49.65 39.10 46.93Q39.10 44.20 37.03 42.75Q34.95 41.30 31.13 40.23Q27.30 39.15 25.58 38.35Q23.85 37.55 22.30 36.25Q19.20 33.65 19.20 28.20Q19.20 23.75 22.38 20.55Q25.55 17.35 31.05 17.35Q33.70 17.35 36.58 18.13Q39.45 18.90 40.15 18.90Q40.85 18.90 41.40 17.90L41.95 17.90L42.30 28.00L41.50 28.00Q39.10 23.65 36.48 21.03Q33.85 18.40 30.77 18.40Q27.70 18.40 26 19.83Q24.30 21.25 24.30 23.63Q24.30 26.00 26.33 27.28Q28.35 28.55 31.30 29.35Q34.25 30.15 35.17 30.45Q36.10 30.75 37.48 31.28Q38.85 31.80 39.73 32.38Q40.60 32.95 41.58 33.83Q42.55 34.70 43.10 35.75Q44.45 38.15 44.45 41.45Q44.45 46.85 41.08 50.13Q37.70 53.40 32.20 53.40Q29.35 53.40 25.68 52.65Q22 51.90 21.60 51.90Q20.90 51.90 20.25 53.40L19.55 53.40L19.05 41.50L19.90 41.50Q22.10 45.85 25.52 49.10Q28.95 52.35 32.75 52.35ZM71.05 37.45L71.05 33.75Q71.05 24.60 70.15 22.20Q69.15 19.45 67.30 18.80Q66.25 18.40 64.75 18.40Q63.25 18.40 62.17 18.80Q61.10 19.20 60.40 20.20Q59.70 21.20 59.27 22.30Q58.85 23.40 58.60 25.40Q58.30 28.30 58.30 33.95L58.30 37.55Q58.30 43.65 58.77 46.23Q59.25 48.80 59.95 49.90Q61.50 52.35 64.75 52.35Q68.70 52.35 69.88 49.03Q71.05 45.70 71.05 37.45M64.65 53.40Q64.65 53.40 60.48 53.40Q56.30 53.40 52.17 48.88Q48.05 44.35 48.05 35.78Q48.05 27.20 52.48 22.28Q56.90 17.35 65 17.35Q73.10 17.35 77.22 22.03Q81.35 26.70 81.35 35.30Q81.35 43.90 77.17 48.65Q73 53.40 64.65 53.40ZM103.40 18.35Q95.65 18.35 95.65 33.30L95.65 37.25Q95.65 44.35 97.70 48.38Q99.75 52.40 103.75 52.40Q109.25 52.40 113.85 41.70L114.75 41.70L114.40 52.85L113.85 52.85Q113.55 52.30 113.30 52.08Q113.05 51.85 112.58 51.85Q112.10 51.85 108.95 52.63Q105.80 53.40 102.55 53.40Q94.40 53.40 89.93 49.00Q85.45 44.60 85.45 35.78Q85.45 26.95 90.13 22.15Q94.80 17.35 102.70 17.35Q105.75 17.35 108.68 18.13Q111.60 18.90 112.10 18.90Q112.60 18.90 112.85 18.68Q113.10 18.45 113.40 17.90L113.95 17.90L114.35 28.75L113.45 28.75Q111.20 23.70 108.83 21.03Q106.45 18.35 103.40 18.35ZM134.30 35.20L131.65 35.20L131.65 51.95L134.90 51.95L134.90 52.90L118.65 52.90L118.65 51.95L121.90 51.95L121.90 18.85L118.65 18.85L118.65 17.90L133.75 17.90Q140.25 17.90 142.98 18.58Q145.70 19.25 146.80 20.20Q149.20 22.15 149.20 26.40Q149.20 30.65 147.10 32.48Q145 34.30 140.70 34.65L140.70 34.80Q144.75 35.35 146.35 37.20Q147.95 39.05 147.95 43.40L147.95 46.05Q147.95 48.65 148.23 49.55Q148.50 50.45 149.40 50.45Q150.30 50.45 150.83 49.63Q151.35 48.80 151.80 46.15L152.65 46.25Q152.10 50.50 150.73 51.95Q149.35 53.40 145.25 53.40Q141.15 53.40 139.43 51.48Q137.70 49.55 137.70 44.25L137.70 40.60Q137.70 37.80 136.97 36.50Q136.25 35.20 134.30 35.20M131.65 18.85L131.65 34.25L133.25 34.25Q136.10 34.25 137.48 32.50Q138.85 30.75 138.85 26.80L138.85 25.35Q138.85 21.40 137.53 20.13Q136.20 18.85 133.30 18.85L131.65 18.85ZM174.80 51.95L171.15 41.15L161.25 41.15L157.40 51.95L161.15 51.95L161.15 52.90L153.50 52.90L153.50 51.95L155.85 51.95L168.60 17.60L172.70 17.60L185.30 51.95L187.60 51.95L187.60 52.90L171.25 52.90L171.25 51.95L174.80 51.95M166.40 26.95L161.70 40.05L170.75 40.05L166.40 26.95Z"/></g><g transform="translate(0, 64.55)"><path d=""/></g></g></g></svg>
